<?xml version="1.0" standalone="no"?>
<!DOCTYPE svg PUBLIC "-//W3C//DTD SVG 1.1//EN" "http://www.w3.org/Graphics/SVG/1.1/DTD/svg11.dtd" >
<svg xmlns="http://www.w3.org/2000/svg">
<metadata></metadata>
<defs>
<font id="jellybellyregular" horiz-adv-x="1218" >
<font-face units-per-em="2048" ascent="1638" descent="-410" />
<missing-glyph horiz-adv-x="1024" />
<glyph horiz-adv-x="0" />
<glyph unicode="&#xd;" horiz-adv-x="1024" />
<glyph unicode=" "  horiz-adv-x="1024" />
<glyph unicode="&#x09;" horiz-adv-x="1024" />
<glyph unicode="&#xa0;" horiz-adv-x="1024" />
<glyph unicode="!" horiz-adv-x="612" d="M70 262q-4 94 56 158.5t155 64.5h51q70 -2 53 -2q127 0 166 -12q84 -27 84 -125q0 -88 -41 -174q-51 -106 -127 -106q-39 0 -145 32q-98 29 -144 52q-106 51 -108 112zM106 1102q0 178 347 178q203 0 204 -109q-8 -25 -26 -75l-33 -84l-57 -242q-41 -174 -74 -219 q-12 -14 -49 -27l-35 -12l-78 20l-4 -2l-63 35q-10 16 -18.5 128t-24.5 145q-88 186 -89 264z" />
<glyph unicode="&#x22;" horiz-adv-x="952" d="M141 1149q0 98 41 180q23 45 64 64q10 4 86 22q37 8 80 6q55 -4 75.5 -19.5t37 -65.5t16.5 -79q2 -109 -49 -284q-61 -213 -140 -201q-45 8 -84 33q-51 33 -43 72q2 6 23 84q2 10 -47 52t-56 62q-4 37 -4 74zM528 1102q0 23 12.5 60.5t14.5 54.5q12 94 79.5 150t164.5 56 q104 0 139 -69q25 -49 25 -166q0 -70 -50 -234q-55 -186 -100 -194q-35 -6 -94 6q-70 14 -72 41q-2 23 21 156q0 -2 -70 47t-70 92z" />
<glyph unicode="#" horiz-adv-x="1441" d="M162 997q0 66 67 66q20 0 52 -6q0 6 8 4q6 -2 8 -6l61 -11l23 11q37 152 84 202q68 72 225 72q57 0 58 -92q0 -25 -6.5 -72t-6.5 -71q0 -14 2 -21q39 -27 113 -49q14 18 32.5 120.5t30.5 131.5q96 53 201 55q129 2 129 -78q0 -20 -6 -59t-6 -59q0 -39 14 -66l154 -25 q62 -24 74 -122l-7 -7q0 -84 -57 -98q-70 -4 -141 -6l-19 -78l8 -16l93 -12q63 -14 67 -54q14 -119 15 -145q0 -63 -60 -88q-20 -8 -115 -21q-10 -16 -24 -127q-8 -68 -72 -67q-25 0 -57 8l-6 -6q-4 4 -11 6q-8 4 -10 0q-31 12 -121 33q-78 18 -118 41q-6 49 -31 141l-62 25 q-8 -68 -14 -95q-12 -74 -29 -80q-29 -10 -73 -10q-166 0 -338 84l-25 41q23 109 21 115q-74 8 -94 24q-29 20 -29 91l4 6q-6 102 27 155q27 14 94 19q2 -4 71 -13l21 37q-27 8 -78 10.5t-76 8.5l-49 41q-16 100 -16 112zM721 770q20 -18 119 -47q39 68 39 92q0 23 -70 37 q-11 2 -72 20q-18 -76 -16 -102z" />
<glyph unicode="$" horiz-adv-x="1030" d="M199 850q0 133 106 219q43 35 207 74q4 49 2 176q29 51 107.5 93t138.5 42q55 0 80 -37q16 -35 16 -94q0 -23 -5 -70t-5 -69q121 -80 131 -88q57 -51 84 -133q4 -20 -50 -54t-79 -32q-88 68 -174 67q-76 0 -150 -55q2 -14 117 -45q133 -35 147 -41q158 -76 158 -182 q0 -145 -264 -316q4 -127 -2 -172q-16 -121 -88 -121q-63 0 -187 80l-59 39q-33 20 -43 45q2 55 4 133q-66 29 -131 56q-53 29 -53 77q0 41 31 111q23 10 59 10q25 0 76 -6t76 -6q55 0 55 37l-203 96q-102 49 -102 166z" />
<glyph unicode="%" horiz-adv-x="1028" d="M164 881q0 80 77.5 167t157.5 87q41 0 84 -25q52 -29 52 -66q0 -23 -66 -132t-90 -134q-51 -51 -96 -55q-31 -2 -75 61.5t-44 96.5zM276 487q0 68 127 230q74 94 273 452q31 57 61.5 75t93.5 18q130 -1 130 -60q0 -102 -213 -532t-263 -430q-82 -2 -153 122 q-55 96 -56 125zM727 489q0 49 57.5 197t92.5 184q12 10 45 11q41 0 86 -19q55 -22 55 -55q0 -70 -82 -248q-88 -193 -150 -192q-10 0 -41.5 26.5t-41.5 38.5q-20 25 -21 57z" />
<glyph unicode="&#x26;" horiz-adv-x="905" d="M78 1114q0 106 176 162q129 41 264 41q131 0 225 -31q143 -47 144 -149q0 -59 -115 -189q-94 -106 -168 -162v-6l47 -39q109 57 160 58q23 0 37 -11q23 -41 47 -116l-70 -111q41 -22 109 -102q-4 -43 -78 -128t-117 -91q-41 -6 -135 65q-164 -117 -285 -117 q-98 0 -149 74q-45 63 -45 166q0 94 41 185.5t113 142.5q-53 43 -127 170t-74 188zM358 584q20 -14 39 -15q13 0 23 4q-8 33 -37 56q-10 -4 -19.5 -19.5t-5.5 -25.5zM424 922q76 -29 96 -29q26 0 49 96q-53 33 -90 25q-10 -2 -32.5 -36t-22.5 -46v-10z" />
<glyph unicode="'" horiz-adv-x="540" d="M180 1294q0 96 41 181q20 41 64 61q29 12 86 25q29 6 80 4q53 -2 75.5 -15.5t38 -64.5t15.5 -82q2 -109 -50 -285q-61 -213 -139 -200q-43 6 -84 32q-51 33 -43 70q6 31 23 86q2 10 -47.5 49t-53.5 64q-6 39 -6 75z" />
<glyph unicode="(" horiz-adv-x="765" d="M49 463q-8 496 291 764q47 43 162 94q137 61 223 61q96 0 96 -86q0 -29 -26.5 -67.5t-53.5 -54.5q-106 -63 -167.5 -176t-61.5 -240v-84q27 -121 45 -162q35 -76 109 -127q156 -109 155 -147q0 -86 -129 -134q-100 -37 -200 -36q-193 0 -312 100q-129 106 -131 295z" />
<glyph unicode=")" horiz-adv-x="827" d="M61 1235q0 135 197 135q207 0 385 -151q211 -180 211 -467q0 -305 -192 -512q-197 -213 -500 -213q-14 0 -35 14t-27 29q-12 31 -12 57q0 61 82 133q109 94 145 152q78 115 66 276q-12 182 -86 330q-23 43 -135 115q-98 61 -99 102z" />
<glyph unicode="*" horiz-adv-x="880" d="M100 1047q0 47 56 114q31 8 100 15q23 -10 70 -23l6 -6l14 8q-4 23 -4 41q0 80 82 80q31 0 70 -16q49 -18 51 -42t10 -63q117 35 121 35q72 -2 72 -45q0 -39 -50 -101q-57 -72 -63 -88q76 -68 76 -131q0 -43 -31 -70.5t-74 -27.5q-53 0 -102 49l-51 49q-16 0 -67.5 -52 t-84.5 -52q-25 0 -59.5 18.5t-39.5 39t-5 40.5q0 31 28.5 69t28.5 44q0 20 -57 41l-78 24q-18 23 -19 50z" />
<glyph unicode="+" horiz-adv-x="993" d="M227 674q4 119 33 135q10 8 152 16q12 35 16 104.5t12 100.5q27 14 80 22.5t76 18.5l4 -6q80 10 117 10q68 0 80 -45q2 -25 14 -164l8 -10q156 2 189 -74q16 -37 16 -219q0 -31 -86 -45l-121 -20q12 -104 6 -140q-190 -49 -334 -49q-66 0 -71.5 16.5t-5.5 47.5 q4 109 -6 108q-37 -4 -97 4q-78 10 -80 33q-6 49 -2 156z" />
<glyph unicode="," horiz-adv-x="583" d="M84 250q0 12 13.5 55t13.5 60q12 88 86.5 150.5t162.5 62.5q86 0 132 -72q28 -45 26 -170q0 -72 -49 -234q-55 -186 -100 -194q-35 -6 -95 6q-68 14 -71 41q-2 16 20 156q2 10 -59.5 42.5t-67.5 43.5q-10 29 -12 53z" />
<glyph unicode="-" d="M422 537q-16 66 2 202q12 84 45 121q117 12 270 12q207 -2 273 5q49 4 110 -13q78 -20 72 -63q23 -45 23 -131q0 -123 -50 -152q-106 -61 -426 -61q-299 0 -319 80z" />
<glyph unicode="." horiz-adv-x="794" d="M66 207q0 49 32 121q35 80 74 96t158 16q221 0 293 -37q37 -18 39 -61q2 -55 -25 -143q-29 -96 -64 -129q-16 -14 -51 -15q-41 0 -96 15q-23 6 -80 20q-63 10 -127 21q-78 14 -115.5 38.5t-37.5 57.5z" />
<glyph unicode="/" horiz-adv-x="1050" d="M76 -16q0 45 315 709.5t381 756.5q12 6 33 6q72 0 190 -67q131 -72 131 -136q0 -23 -303 -553l-446 -780q-63 -111 -123 -110q-39 0 -108.5 68.5t-69.5 105.5z" />
<glyph unicode="0" horiz-adv-x="999" d="M37 559q0 254 168 455q178 211 428 211q207 0 309 -176q82 -142 82 -363q0 -233 -154.5 -377.5t-388.5 -144.5q-193 0 -313 100q-131 106 -131 295zM326 455q0 -90 211 -90q125 0 174 28q10 4 19 39t9 51q0 123 -96 123q-88 0 -260 -76q-20 -16 -43 -30q-14 -14 -14 -45z " />
<glyph unicode="1" horiz-adv-x="641" d="M43 446q0 82 72 259q33 81 96 231l-90 16q-53 10 -53 60q0 111 61 147q102 63 305 64q182 0 209 -78q6 -18 6 -84q0 -143 -24.5 -437t-24.5 -296q-35 -227 -119 -228q-76 0 -234.5 115t-195.5 188q-8 16 -8 43z" />
<glyph unicode="2" horiz-adv-x="937" d="M37 963q0 131 104 192q59 33 228 68q201 41 338 41q266 0 266 -121q0 -86 -80 -221q-27 -43 -154 -220q-82 -112 -82 -147q35 -18 142 -57q49 -16 123 -54q33 -25 32 -77q0 -63 -71 -336q-23 -10 -80 -11q-188 0 -393 58l-4 -4l-213 51q-152 37 -152 108q0 94 102 242 q39 55 207 260q131 160 168 238q-18 8 -51 0q-31 -8 -43 -21q-2 -35 -37 -159q-51 -47 -127 -48q-92 0 -157.5 62.5t-65.5 155.5z" />
<glyph unicode="3" horiz-adv-x="1017" d="M25 1094q0 117 90 155q35 14 200 41q195 31 381 31q319 0 320 -94q0 -61 -95.5 -234.5t-93.5 -210.5q90 -100 185 -233q55 -80 55 -180q0 -158 -137 -258q-123 -92 -287 -93q-307 0 -543 304q-45 57 -45 116q0 82 74 135q66 49 150 50q25 0 85 -38t89 -38l22 37 q0 31 -36 92t-38 90q-2 27 82 135q102 133 109 146l-35 12l-47 -12q-4 -78 -33 -117q-18 -25 -96 -41q-59 -12 -109 -12q-248 0 -247 217z" />
<glyph unicode="4" horiz-adv-x="1030" d="M43 584q0 143 20 340q27 254 70 317q10 14 106.5 35.5t127.5 21.5l53 -36q0 -80 -51 -205q-57 -139 -66 -199q33 0 95.5 7t95.5 7q4 76 22 228q33 41 152 102q133 70 204 70q61 0 62 -55q0 -45 -21 -119q-23 -86 -26 -117q68 6 80 6q94 0 94 -55q0 -117 -35 -301 q-23 -121 -33 -146q-31 -88 -96 -100q-10 -2 -176 -6q-25 -55 -55 -199q-29 -129 -66 -194q-45 -14 -80 -15q-129 0 -129 222q0 33 3 95t3 95q-47 2 -129 -10q-92 -12 -131 -13q-43 0 -69 11q-25 45 -25 213z" />
<glyph unicode="5" horiz-adv-x="1073" d="M10 1284q18 41 64 53q14 2 86 15q322 53 403 53q283 0 283 -231q0 -45 -10 -99q-27 -39 -121 -39q-57 0 -167 18.5t-163 24.5q-16 -16 -14 -51t14 -55q53 -18 180 -33q119 -12 178 -37q186 -80 288 -241.5t102 -368.5q0 -150 -27 -170q-106 -86 -332 -96l-414 -21 q-81 -4 -120 10q-35 209 -35 340q0 98 24 123q4 6 170 33q152 25 152 66q0 37 -182 92q-47 14 -224 65q-39 16 -86 279z" />
<glyph unicode="6" horiz-adv-x="993" d="M33 625q0 92 20 166q68 244 207 395q166 176 397 176q115 0 220 -53q127 -66 127 -170q0 -90 -95 -150q-82 -53 -176 -53q-109 0 -196 78q-31 27 -37 26l-80 -69l-10 -49l292 -29q258 -49 297 -252q10 -53 11 -113q0 -211 -144.5 -354t-355.5 -143q-317 0 -428 334l-6 6 q-43 115 -43 254zM287 518q12 -12 67 -12t154 14q92 14 106 19q61 20 62 73q-1 44 -21 93q-31 16 -47 16q-78 0 -198 -62q-137 -70 -123 -141z" />
<glyph unicode="7" horiz-adv-x="796" d="M23 1006q-2 170 45 297q47 39 172 38q43 0 118 -6l99 -8q389 -33 389 -164q0 -178 -80 -415q-39 -113 -139 -406q-12 -49 -49 -179t-93 -147l-8 -4q-63 -8 -199.5 101.5t-136.5 173.5q0 45 164 317l205 340q-16 4 -39 4q-55 0 -162.5 -24.5t-163.5 -24.5q-123 0 -122 107 z" />
<glyph unicode="8" horiz-adv-x="1159" d="M16 401q0 149 129 385q-74 86 -73 168q0 152 217 263q199 100 426 100q123 0 207 -39q113 -51 112 -160l-2 -2q4 -66 -41 -225q14 -23 60 -57q53 -39 65 -54q70 -76 70 -190q0 -256 -166 -410.5t-424 -154.5q-174 0 -320 75q-152 78 -241 224q-18 29 -19 77zM371 590 q0 -39 28 -60q12 -8 64 -28q217 -84 274 -84q29 0 43 20q6 6 23 47q20 52 20 70q0 39 -82 70q-219 82 -309 82q-23 0 -42 -45.5t-19 -71.5zM406 909q92 -16 172 -16h71q82 0 99.5 14.5t17.5 91.5q0 25 -10 48q-2 4 -39 15t-45 11q-53 0 -129 -22q-84 -25 -117 -56 q-20 -20 -20 -86z" />
<glyph unicode="9" horiz-adv-x="974" d="M10 842q0 193 121 340q127 160 315 159q135 0 277 -96q274 -188 274 -522q0 -162 -64.5 -342t-164.5 -313q-86 -115 -129 -115q-70 0 -190 65q-96 54 -170 113q-6 23 -7 45q0 49 50 107q61 72 73 104q-55 20 -164 70q-221 125 -221 385zM375 725q0 -41 110 -94 q84 -41 111 -41q15 0 29 10q18 59 18 64q0 23 -55.5 63.5t-84 49.5t-59.5 9q-25 0 -47 -18t-22 -43z" />
<glyph unicode=":" horiz-adv-x="849" d="M227 391q0 43 23 101q25 68 57 77q82 27 238 27q272 0 272 -119q0 -121 -41 -170q-45 -57 -162 -57q-37 0 -104 4q-74 4 -104 4q-102 2 -134 18q-47 27 -45 115zM256 774l2 31q6 98 37 127q25 25 264 24q248 0 283 -38q22 -26 22 -89q2 -23 -7 -83t-17 -76 q-20 -35 -197 -45q-145 -8 -219 2q-115 16 -135 28q-39 25 -33 119z" />
<glyph unicode=";" horiz-adv-x="806" d="M193 408q0 14 20 94t27 86q43 45 194 45q236 0 297 -94q27 -41 27 -146q0 -90 -23 -170q-35 -119 -100 -119q-190 0 -191 119q1 29 15 64q-23 20 -97 26q-86 8 -114 19q-55 20 -55 76zM227 784q0 49 34 126t74 93.5t159 16.5q221 0 292 -37q35 -18 37 -61q2 -61 -22 -146 q-27 -90 -66 -127q-14 -14 -51 -14q-41 0 -174 35l-127 20q-156 25 -156 94z" />
<glyph unicode="&#x3c;" horiz-adv-x="716" d="M219 590q-2 51 64 143q31 43 161 119q145 84 218 84q51 0 51 -45q0 -68 -131 -254q0 2 77.5 -123t77.5 -176q0 -53 -59 -53q-86 0 -266 112q-188 119 -193 193z" />
<glyph unicode="=" horiz-adv-x="1193" d="M338 401q0 92 18 134q29 57 111 59h174q215 4 299 -2q72 -4 150 -6q104 -12 120 -64q7 -18 9 -57l-5 -2q4 -113 -24 -193q-14 -39 -35 -47q-113 -47 -477 -47h-193q-80 6 -110 51q-37 49 -37 174zM350 782q0 23 8.5 69t8.5 69v61q0 111 86 106q68 -6 258 -18q72 0 260 -4 q201 -6 225 -59q10 -23 10 -62q0 -78 -35 -160q-43 -100 -108 -100q-45 0 -135 -10t-135 -10q-27 0 -82.5 4t-81.5 4q-12 2 -47 0t-62 -2q-166 0 -166 86q-4 8 -4 26z" />
<glyph unicode="&#x3e;" horiz-adv-x="878" d="M389 412q0 57 66 151l65 94q-49 61 -104 142q-20 31 -21 71q0 70 90 70q98 0 252 -72q176 -82 176 -166q0 -82 -189 -216t-280 -134q-55 0 -55 60z" />
<glyph unicode="?" horiz-adv-x="997" d="M172 1024q0 123 43 170q37 41 225 68q139 20 246 20q264 0 328 -98q18 -29 18 -107q0 -195 -82 -395q-98 -240 -248 -262q-80 -12 -202 37q-137 55 -138 131q0 33 82 117q68 70 115 98q37 23 71 89t34 112q0 51 -43 51q-53 2 -70 -37q-2 -41 -12 -111q-88 -61 -144 -61 q-8 0 -96 10q-127 14 -127 168zM223 285q0 131 197 131q127 0 266 -60q174 -73 154 -186q-31 -174 -166 -174q-49 0 -170 31q-137 35 -195 77q-86 63 -86 181z" />
<glyph unicode="@" horiz-adv-x="1185" d="M84 621q2 270 194.5 455.5t464.5 185.5q205 0 328 -120t139 -325q-10 -70 -36 -248q-33 -199 -115 -204q-94 -6 -293 61q-223 78 -223 152q0 147 200 147q51 0 82 -29q31 -36 62 -71l39 22q0 33 -19 94q-20 70 -41 76q-10 2 -28 2q-74 0 -205 -41q-143 -43 -182 -88 q-16 -18 -19 -86q-2 -82 4 -155q10 -123 43 -119q20 2 142 32q90 23 141 23q123 0 164 -123q-14 -100 -135 -149q-94 -39 -213 -39q-129 0 -240 41q-131 49 -193.5 142t-60.5 364zM688 584q0 -4 4 -10.5t4 -8.5q51 -10 88 -26l2 8q-2 14 -21.5 33.5t-33.5 19.5 q-43 0 -43 -16z" />
<glyph unicode="A" horiz-adv-x="1169" d="M37 397q0 238 213 543q221 315 446 356q4 1 8 1q51 0 197 -87q127 -76 219 -350q80 -238 80 -418q0 -213 -106 -272q-20 -8 -54 -8q-72 0 -178 43q-127 51 -127 108q0 14 5 51.5t3 57.5q-112 -55 -112 -82q0 -13 14 -57q14 -45 14 -70l-43 -59q-72 -31 -170 -31 q-82 0 -215 27q-195 39 -194 247zM621 535q61 10 127 57q-2 47 -37 127q-3 1 -5 1q-30 0 -59 -61q-27 -55 -26 -94v-30z" />
<glyph unicode="B" horiz-adv-x="999" d="M29 1090q0 61 8 92q18 71 212 71h5q160 0 393 -43q201 -37 262 -63q131 -57 131 -158q0 -92 -98 -207q-26 -30 -98 -112q2 -6 88 -113q59 -74 59 -123q0 -90 -313 -217q-285 -115 -410 -115q-59 0 -73 27q-57 111 -115 469q-51 324 -51 492zM485 436q98 20 99 43 q0 12 -72 43q-23 -47 -27 -86zM575 713q102 41 103 69q0 14 -27 25.5t-45 11.5q-10 -35 -31 -106z" />
<glyph unicode="C" horiz-adv-x="942" d="M39 666q0 287 256 430q203 114 513 114h5q82 0 119 -22q49 -31 49 -238q0 -201 -39 -239q-2 -2 -205 -23q-193 -18 -200 -57q-4 -18 -2 -62q2 -51 22 -51q11 0 27 14q51 0 139 -10q66 -23 65 -73q0 -72 -106.5 -164t-179.5 -92q-14 0 -23 6q-39 -12 -78 -13 q-162 0 -268 164q-94 143 -94 316z" />
<glyph unicode="D" horiz-adv-x="999" d="M20 1143q6 104 265 104q262 0 489 -106q264 -124 264 -314q0 -150 -159 -335q-147 -170 -297 -236q-207 -90 -220 -90q-49 0 -206 473q-136 408 -136 498v6zM512 453h10q76 49 76 88q0 34 -57 67q-10 -47 -29 -155z" />
<glyph unicode="E" horiz-adv-x="892" d="M16 1079q0 27 4 49q10 57 383 105q293 37 418 37q23 0 51 -10q37 -12 41 -29q19 -67 19 -168v-10q-2 -147 -14 -172q-23 -45 -144 -76q-67 -19 -262 -72l-6 -22l18 -11l92 5h9q77 0 77 -70q0 -25 -8 -62q-27 -27 -116 -47q-102 -23 -125 -37v-20l16 -10q102 22 168 22h6 q25 1 45 1q61 0 80 -5q70 -14 70 -78q0 -58 -232 -131q-212 -67 -322 -67h-3q-12 0 -19 2q-41 55 -125 358q-39 129 -76 258q-45 162 -45 260z" />
<glyph unicode="F" horiz-adv-x="919" d="M41 924q0 252 190 307q29 9 311 25q207 12 280 12q26 0 34 -2q59 -10 76 -33q26 -69 26 -223v-11q0 -145 -28 -198q-20 -37 -137 -49q-57 -4 -207 -21q-107 -15 -107 -76q123 12 158 13q84 0 143 -41q1 -40 1 -72q0 -62 -3 -88q-12 -117 -76 -117q-45 0 -135 27 q-100 31 -137 35q-27 -57 -59 -123q-43 -68 -109 -68q-119 0 -160 66q-8 14 -30 194q-16 135 -27 324q-4 76 -4 119z" />
<glyph unicode="G" horiz-adv-x="1024" d="M12 698q0 268 326 471q289 180 561 181q197 0 197 -116q0 -52 -72 -214q-76 -172 -111 -174q-76 -6 -270 -25q-154 -16 -221 -129q-25 -41 -25 -59q0 -24 90 -49q37 111 107 143q57 27 211 27q64 0 64 -31q0 -4 -1 -8q-20 -104 -71 -373q-61 -317 -90 -340 q-14 -8 -64 -12q-18 -2 -32 -2q-21 0 -33 4q-45 68 -95 241q-104 29 -211 56q-106 37 -172 139q-88 137 -88 270z" />
<glyph unicode="H" horiz-adv-x="1034" d="M158 1247q106 51 219 51q96 0 121 -41q12 -23 28 -194q16 -193 25 -225l29 -21h8q14 23 14 162v176q0 68 21.5 90.5t89.5 22.5q86 0 217 -39q158 -48 172 -109l-4 -4q0 -90 -74 -301q-68 -193 -143 -332q-120 -219 -221 -219q-10 0 -19 2q-33 6 -43 129l-12 160l-37 18 q-6 -37 -6 -84q0 -14 6 -129q2 -31 2 -58q0 -40 -4 -69q-4 -18 -70 -69q-4 -4 -40 -20q-32 -14 -39 -13h-1q-53 10 -217 447q-157 421 -157 508q0 98 135 161z" />
<glyph unicode="I" horiz-adv-x="468" d="M47 582v-2l4 157l4 4q12 117 27 232q23 176 45 207q37 49 209 49q57 0 78 -55q16 -43 48 -332q28 -250 28 -323q0 -11 -1 -19q-6 -76 -129.5 -202t-197.5 -126q-115 0 -115 410z" />
<glyph unicode="J" horiz-adv-x="634" d="M37 1104q6 45 29 65q12 12 63 41q158 91 330 111l61 -27q53 -88 96 -327q37 -207 37 -342q0 -72 -12 -195q-14 -145 -35 -190q-59 -133 -194 -134q-100 0 -219 74q-135 84 -136 195q0 47 78 73q76 24 76 60q0 121 -89 382q-75 218 -84 218q-1 0 -1 -4z" />
<glyph unicode="K" horiz-adv-x="851" d="M10 1180q0 59 50.5 106t109.5 47q18 0 27 -6l28 8l13 -6q86 16 147 17q176 0 176 -152q0 -53 -47 -272h4q127 115 131 116q76 68 156 68q25 0 51 -102q23 -83 23 -121v-6q-2 -57 -66 -125q-28 -31 -104 -107q90 -293 90 -346q0 -37 -39 -102q-41 -72 -74 -72 q-23 0 -117 108q-70 80 -110 140q-8 -8 -27 -88q-20 -86 -31 -107q-33 -57 -96 -57q-121 0 -217 467q-78 377 -78 592z" />
<glyph unicode="L" horiz-adv-x="610" d="M39 1090q0 127 14 184q20 82 277 82q98 0 188 -23q133 -33 135 -102v-6q0 -106 -69 -324q-74 -229 -74 -334q0 -16 2 -30q109 -109 109 -156q0 -76 -126 -185.5t-206 -113.5q-113 100 -187 436q-63 289 -63 572z" />
<glyph unicode="M" horiz-adv-x="1511" d="M2 489q16 119 153.5 395.5t223.5 362.5q12 4 27 4q98 0 225 -217q14 -25 155 -305q23 23 134 287q96 229 159 229q74 -39 275 -252q205 -217 205 -275q0 -60 -84 -171q-35 -43 -121 -154q-102 -133 -148 -133q-51 0 -133 102q-8 11 -108 146q-49 -33 -148 -172 q-119 -168 -201 -168q-68 0 -151 135q-113 182 -119 189q-47 -117 -51 -125q-41 -80 -88 -80q-47 1 -129 79q-76 73 -76 117v6z" />
<glyph unicode="N" horiz-adv-x="1052" d="M25 377q-2 12 -2 29q0 94 47 350q49 268 86 389q29 92 28 94q27 61 64 61q88 0 252 -210q59 -80 219 -291q2 8 2 22q0 37 -12 117l-17 106q-1 7 -1 13q0 57 85 57q72 0 187 -49q127 -55 127 -112v-5q-20 -178 -78 -407q-82 -330 -152 -330q-49 0 -168 102 q-148 128 -168 140q-6 -10 -6 -33t5 -68t5 -67q0 -94 -73 -97h-5q-73 0 -233 58q-184 66 -192 131z" />
<glyph unicode="O" horiz-adv-x="1095" d="M25 723q0 37 8 82q39 215 195.5 343t375.5 128q147 0 379 -162q112 -78 137 -344q1 -9 1 -18q0 -50 -27 -119q-72 -180 -199 -285q-138 -112 -321 -112h-3q-211 0 -374 137q-172 143 -172 350zM575 510q0 -63 46 -64q29 0 88 17.5t77 34.5q72 68 72 245q0 142 -61 185 q-16 -20 -72 -94q-18 -23 -70 -93q-14 -20 -45 -92l-8 -6q-27 -104 -27 -133z" />
<glyph unicode="P" horiz-adv-x="1026" d="M37 1126q0 18 2 27q23 45 258 88q193 35 287 35q514 0 514 -299q0 -172 -211 -354q-180 -156 -373 -215q-23 -82 -43 -164q-39 -111 -96 -111q-80 0 -213 434q-125 406 -125 559zM518 631l2 -32v1q31 8 62.5 42t29.5 65q-28 24 -66 24h-3q-12 0 -21 -4q-2 -10 -4 -31 q-1 -12 -1 -28.5t1 -36.5z" />
<glyph unicode="Q" horiz-adv-x="1099" d="M33 643q0 190 144.5 386t326.5 259q70 25 133 25q205 0 348 -174q137 -164 137 -373q0 -277 -254 -449l2 -6q43 -14 78 -88q31 -63 31 -117q0 -76 -56.5 -127t-131.5 -51q-135 0 -185 140l47 110q-31 16 -63 17q-20 0 -41 -7l-39 17l-12 31q-465 78 -465 407zM657 516 q45 0 103 21q66 23 89 52t40 122q14 78 14 133q0 63 -16 86q-4 6 -28.5 15t-33.5 9q-41 0 -59 -36q-12 -43 -51 -168q-58 -179 -58 -234z" />
<glyph unicode="R" horiz-adv-x="1064" d="M27 1073q0 63 26 80q119 76 289 76q223 0 467 -131q281 -152 281 -357q-1 -173 -261 -288q168 0 222 -43q22 -17 22 -75v-5q0 -139 -76 -209q-29 -27 -73 -27q-94 0 -258 109q-133 88 -201 162q-61 -123 -72 -140q-55 -86 -114 -86q-111 0 -230 776q-23 147 -22 158z M506 565q131 20 131 64q-1 21 -45 43q-35 18 -54 17q-5 0 -10 -1q-14 -76 -22 -123z" />
<glyph unicode="S" horiz-adv-x="980" d="M18 938q0 88 82 215q92 143 359 143q248 0 426 -98q84 -47 84 -113q0 -63 -66 -102q-55 -35 -123 -35q-76 0 -118 53q-49 86 -60 99q-41 51 -96 51q-53 0 -53 -45q0 -86 145 -158q231 -115 268 -143q143 -106 144 -277q0 -96 -90 -198q-78 -90 -179 -135 q-135 -61 -270 -62q-252 0 -405 209q-35 47 -35 131q0 70 24 119q33 65 93 65h2q43 0 108 -41q92 -57 104 -63q14 23 15 41q0 43 -94 88q-135 66 -172 92q-92 68 -93 164z" />
<glyph unicode="T" horiz-adv-x="1161" d="M27 1038q0 84 73 127q45 27 148 52q4 2 10 2q121 27 141 27q3 0 4 -1q129 41 355 80q222 37 346 37h12q125 -2 125 -123q0 -131 -51 -233q-16 -33 -74 -33q-63 0 -235 59q-23 -27 -56 -241q-27 -171 -27 -237q0 -14 1 -24q137 -23 137 -65q0 -86 -154 -195 q-145 -106 -235 -106q-66 0 -109 43q-141 137 -141 418q0 63 10 133q2 12 21 106q14 66 14 109q0 10 -4 12q-178 -57 -229 -57q-37 0 -66 10q-16 57 -16 100z" />
<glyph unicode="U" horiz-adv-x="1026" d="M47 621q0 8 6 110q8 121 10 203q5 101 19 291q39 41 102 61q39 10 115 33q111 35 162 35q131 0 131 -158q0 -100 -54.5 -295.5t-54.5 -296.5q0 -119 95 -119q145 0 145 99q0 57 -58.5 192t-58.5 193q0 118 175 118h3q143 0 217 -151q59 -121 60 -279q0 -117 -33 -198 q-58 -143 -248 -256q-184 -109 -337 -109h-11q-385 10 -385 527z" />
<glyph unicode="V" horiz-adv-x="1017" d="M156 1266q104 61 225 80q7 1 13 1q57 0 98 -79q27 -49 67 -191q37 -125 68 -157q8 2 98 90t119 88q37 0 136 -55.5t99 -86.5q0 -68 -248.5 -430t-285.5 -362q-20 0 -49 10l-277 461q-196 326 -196 454q0 99 133 177z" />
<glyph unicode="W" horiz-adv-x="1468" d="M10 967q0 59 103 151q23 18 155 121q68 51 129 51q25 0 45 -10q35 -53 60 -193q31 -172 43 -206q27 20 85 117.5t89 125.5q119 27 168 27q63 0 80 -57q35 -121 61 -166q33 31 66 112q20 53 127 115l135 78q86 49 139 49q55 0 55 -51q0 -117 -145 -535 q-135 -387 -205 -512q-23 -41 -59 -43h-3q-53 0 -151 162q-37 59 -129 219l-18 -39q-27 -63 -99 -217q-92 -194 -148 -194h-1q-82 0 -332 393t-250 502z" />
<glyph unicode="X" horiz-adv-x="1073" d="M33 866q0 68 89 266.5t140 245.5q4 1 8 1q61 0 211 -173q55 -66 199 -233q20 2 182 116.5t178 114.5q78 0 78 -69q0 -90 -86 -226l-114 -180q194 -352 194 -423q0 -58 -63 -58q-92 0 -328 112q-207 -356 -260 -356q-51 0 -189.5 184.5t-138.5 243.5q0 43 55 96 q20 16 91 78q-43 31 -154 111q-92 70 -92 149z" />
<glyph unicode="Y" horiz-adv-x="1105" d="M31 831q0 152 67 390q80 78 176 139q131 84 224 84q84 0 123 -74q-8 -61 -39 -205q-25 -115 -25 -161q0 -90 78 -91q68 0 211 68q-78 195 -78 258q0 18 2 33q98 21 129 21q8 0 12 -1q236 -74 236 -241q0 -35 -2 -50q-14 -98 -31 -139q-25 -61 -90 -110q-35 -18 -82 -47 q-61 -39 -63 -56v-17q0 -71 28 -218q35 -172 35 -248q0 -141 -68 -178l-6 6q-10 -1 -22 -1q-103 0 -299 99q-227 117 -228 211q0 18 82 240l-10 12q-18 0 -186 14q-174 14 -174 262z" />
<glyph unicode="Z" horiz-adv-x="1028" d="M33 305q0 92 100 264q57 98 184 287q104 156 109 191q-16 14 -162 51q-125 32 -125 62q0 75 35 112q20 20 176 35q113 10 191 10q428 0 428 -162q0 -70 -157 -350.5t-157 -343.5q139 12 211 12q207 0 228 -63q5 -14 5 -46.5t-5 -82.5q-8 -92 -11 -99q-10 -57 -41 -88 q-92 -12 -196 -12q-164 0 -467 47q-225 35 -295 78q-51 31 -51 98z" />
<glyph unicode="[" horiz-adv-x="573" d="M45 516q0 141 8 483l6 256q0 -16 -2 86q0 57 41 58q78 0 273 -45q223 -51 235 -92q4 -23 4 -107q0 -53 -55 -65l-109 -23q-8 -14 -4 -342q4 -311 9 -365q16 -10 65 -15t65.5 -17.5t16.5 -77.5q0 -63 -14.5 -85t-73.5 -42q-252 -88 -356 -88q-47 0 -70 16q-39 29 -39 465z " />
<glyph unicode="\" horiz-adv-x="1050" d="M76 1253q39 88 217 185q41 23 76 22q84 0 254 -348l184 -414q319 -683 319 -714q0 -39 -69.5 -106.5t-108.5 -67.5q-63 0 -246 317q-70 129 -213 385l-305 518q-119 201 -108 223z" />
<glyph unicode="]" horiz-adv-x="704" d="M37 1122q0 76 37 111q25 23 143 22q106 0 254 -22q135 -20 180 -50t51 -100q0 6 0 -190q0 -602 -47 -715q-35 -82 -274 -86l-150 -2q-104 -2 -147 25q-10 27 -10 61q0 63 28 111q14 14 99.5 37.5t107.5 40.5q6 33 6 69q0 82 -26 191l6 4l-12 28q2 6 -25 330l-6 8 q-84 4 -105 6q-59 6 -96 31q-14 41 -14 90z" />
<glyph unicode="a" horiz-adv-x="727" d="M37 862q0 29 14 117q10 63 187 63q115 0 231 -26q143 -33 209 -90q57 -51 57 -181q0 -125 -76 -350q-88 -264 -184 -264q-125 0 -252 51q-157 63 -157 157q0 54 57 116q41 43 203 131l-4 43q-18 10 -134 37q-98 23 -112 53q-39 82 -39 143zM317 326q68 -14 74 -15 q51 0 51 62q0 12 -23.5 23.5t-37.5 11.5q-41 0 -53 -48q-7 -20 -11 -34z" />
<glyph unicode="b" horiz-adv-x="684" d="M49 573q0 297 62 510q78 270 231 277h12q80 0 158 -25q111 -37 111 -110q0 -53 -97 -252q-85 -173 -85 -208q0 -3 1 -5q82 -15 102 -15h5q92 -29 125 -69.5t43 -136.5l-2 -7q-6 -166 -119 -279.5t-277 -113.5q-94 0 -163.5 48.5t-88 137.5t-18.5 248zM324 414 q32 0 120 18q-12 45 -34 51q-31 2 -64 6q-16 -49 -22 -75z" />
<glyph unicode="c" horiz-adv-x="622" d="M33 551q1 16 1 35.5t-1 40.5q31 172 73 256l7 4q31 66 137 108q94 39 178 39q207 0 207 -188q0 -109 -25 -148q-39 -61 -155 -71q-131 -10 -162 -39q2 -45 63 -45q-10 0 2 2h33h39q127 0 127 -154q0 -119 -182 -119q-121 0 -209 43q-55 27 -93 98.5t-40 137.5z" />
<glyph unicode="d" horiz-adv-x="733" d="M133 692q96 92 162 92q8 0 14 -4l53 15l-36 184q-25 121 -25 182q0 141 182 142q104 0 211 -41q70 -27 70 -220q0 -186 -76 -475q-96 -365 -221 -368h-8q-87 0 -191 39q-243 94 -243 244q0 105 108 210zM301 528q0 -14 23.5 -33.5t42.5 -25.5q2 31 14 92h-39 q-6 0 -23.5 -13t-17.5 -20z" />
<glyph unicode="e" horiz-adv-x="690" d="M37 557q0 190 143 317q135 121 330 132h7q80 0 142 -86q61 -82 62 -168q0 -190 -293 -301q51 -80 51 -91q0 -27 -61.5 -73.5t-89.5 -46.5q-57 0 -154.5 61t-114.5 115q-22 69 -22 135v6zM301 621h2q21 0 162 47q0 47 -31 47q-115 0 -133 -35q-2 -4 -2 -18.5t2 -40.5z" />
<glyph unicode="f" horiz-adv-x="593" d="M20 598q0 49 21 57l68 4q2 6 -23 154q-18 111 -18 195q0 182 125 227q70 25 378 25q145 0 187 -48v-9q0 -52 -37 -175q-45 -147 -80 -158q-77 -9 -233 -34q-25 -29 -25 -134l98 -12q37 -12 37 -80q0 -145 -69 -204q4 4 4 6q0 4 -4 6q-2 -4 -7 -8l-12 6l-12 -8 q-2 10 -8 10q-4 0 -11 -10l-14 6q-6 -2 -14 -2l-15 -6q-4 -68 -28 -203l-99 -39q-2 -1 -5 -1q-26 0 -50 105q-31 129 -45 138q-29 10 -80 43q-29 27 -29 149z" />
<glyph unicode="g" horiz-adv-x="806" d="M-57 614q0 184 284 277q206 67 440 67h7q33 -16 55 -77q20 -51 21 -95q-1 -41 -95 -92q14 -47 15 -86q0 -123 -148 -164q-59 -16 -260 -28l-6 -4l45 -27q274 0 348 -74q43 -43 43 -82q0 -27 -18 -63q-68 -131 -88 -158q-59 -76 -152 -76q-219 0 -219 107q0 59 61 160 q-2 16 -100 45q-78 25 -86 26q-49 25 -49 68q0 37 10 86l15 70q-66 31 -82 43q-41 33 -41 77zM252 666q12 -92 45 -93q20 0 60 3.5t61 3.5q39 0 47 20q4 10 4 57q-49 18 -115 19q-47 0 -102 -10z" />
<glyph unicode="h" horiz-adv-x="712" d="M16 1139v8q0 53 78 53q70 0 193 -43q106 -37 110 -49q6 -39 6 -82q0 -68 -38 -260l6 -4q23 1 45 1q342 0 342 -296q0 -70 -41 -207q-47 -160 -99 -160q-33 0 -137 60.5t-108 87.5q-1 9 -1 20q0 33 9 80q14 72 14 98q0 70 -76 82l-8 -8q-12 -197 -16 -215 q-27 -127 -115 -127q-23 0 -51 8q-14 35 -59 455z" />
<glyph unicode="i" horiz-adv-x="471" d="M33 907q6 111 313 111q82 0 111 -49q22 -37 22 -118v-7q0 -53 -18.5 -76t-73.5 -23h-12q-210 0 -330 68q-12 86 -12 94zM45 643q6 57 33 78q6 6 52 16.5t60 10.5q49 0 136 -25q96 -27 118.5 -56.5t22.5 -131.5q0 -141 -33 -273q-37 -145 -85 -145h-1q-92 2 -182 43 q-113 49 -113 126v5q2 39 45 131t43 135q0 20 -44 38.5t-52 47.5z" />
<glyph unicode="j" horiz-adv-x="516" d="M-61 596q0 49 26 61q18 8 176 21q104 8 119 8q88 0 124 -42t42 -132q2 -29 18 -145q12 -86 13 -146q0 -113 -80 -229q-147 -215 -250 -215q-21 0 -39 10q-20 49 -20 86q0 33 35.5 99.5t35.5 103.5q0 -6 -20 114l-6 7q-33 147 -78 301q-29 4 -86 26q-8 43 -10 72zM47 776 v33q0 116 25 170q18 39 116 39q47 0 124 -14.5t96 -26.5q27 -19 27 -64q0 -9 -1 -20q-4 -55 -24 -156q-18 -45 -64 -45q-49 0 -156 29q-116 30 -143 55z" />
<glyph unicode="k" horiz-adv-x="624" d="M20 879q0 117 21 151q25 43 125 78q88 31 139 31q117 0 117 -111q0 -61 -16.5 -185t-16.5 -186l6 -2q125 49 176 50q90 0 91 -121q-1 -27 -5 -58q-45 -27 -135 -84q23 -113 23 -186q0 -100 -62 -117q-61 43 -194 195q-2 -2 -43 -109q-31 -78 -66 -78q-63 0 -117 326 q-43 264 -43 406z" />
<glyph unicode="l" horiz-adv-x="411" d="M33 928q0 102 8 125q18 53 109 84q67 24 136 24h5q127 0 137 -84l6 -53q1 -10 1 -23q-1 -103 -69 -417q-78 -354 -122 -424q-18 -29 -64 -29q-41 0 -61 64q-4 4 -21 96q-65 343 -65 628v9z" />
<glyph unicode="m" horiz-adv-x="1148" d="M23 770q0 82 22 96q37 23 128 51.5t132 28.5t57 -43q8 -16 17 -76q5 -1 11 -1q33 0 104 18q90 22 121 22h3q76 0 97 -63q223 112 306 112h1q53 0 100 -30q56 -38 56 -90q0 -82 -88 -334q-94 -274 -156 -275h-10q-63 18 -105 205l-55 258l-8 4q-33 -43 -58 -170 q-29 -141 -49 -184q-31 -63 -90 -63q-57 0 -102 180q-37 147 -37 231l-6 4q-39 -10 -72 -112q-14 -51 -57 -183q-33 -96 -92 -96t-117 191q-53 176 -53 319z" />
<glyph unicode="n" horiz-adv-x="815" d="M23 504q0 80 83 272q92 213 162 213q63 0 86 -14t41 -74q37 0 159 34t177 34q106 0 107 -76q0 -111 -66 -361q-76 -288 -147 -288q-64 0 -90 129q-12 68 -50 239q-27 121 -103 121h-5v-231q0 -219 -76 -219q-57 0 -167.5 83t-110.5 138z" />
<glyph unicode="o" horiz-adv-x="712" d="M57 764q41 139 97 182q186 25 245 25q139 0 252 -64l8 2q2 -14 33 -69.5t31 -112.5q0 -180 -82 -377q-72 -33 -115 -33q-80 0 -243 35q-152 33 -183 49q-77 40 -77 149q0 93 34 214zM262 676q0 -39 88 -90t131 -51q10 0 13 6q18 28 18 66q0 13 -2 26q-10 16 -104 63 q-86 43 -119 52q-25 -45 -25 -72z" />
<glyph unicode="p" horiz-adv-x="690" d="M29 854q0 123 41 137q25 8 71 8q72 0 228 -22q168 -25 245 -80q100 -74 101 -227q0 -61 -19 -160q-23 -119 -131 -143q-35 -7 -127 -25q-12 0 -80 -4q-14 -55 -57 -199q-39 -122 -110 -122q-7 0 -15 1q-139 25 -139 471q0 -14 0 19q2 41 2 104v86l-6 62q-4 39 -4 94z M373 565h5q15 0 45 9q36 10 36 22q0 29 -78 49q-8 -41 -8 -80z" />
<glyph unicode="q" horiz-adv-x="796" d="M23 621q0 184 145 282q125 86 317 86q104 0 197 -31q129 -43 129 -127q0 -61 -63 -256l-82 -249l43 -13q6 4 22 4q96 0 96 -73q0 -94 -104 -113q-43 -8 -100 -16q-8 -25 -31 -88q-33 -88 -88 -88h-2q-32 0 -70 34q-20 45 -51 166q-115 41 -115 90q0 45 109 111v14 q-63 16 -156 43q-100 35 -141 76q-55 53 -55 148zM375 645q0 -10 13 -27.5t22 -17.5q14 0 20 76h-8l-12 -6q-35 -12 -35 -25z" />
<glyph unicode="r" horiz-adv-x="649" d="M14 834l23 86q133 47 235 47q98 0 107 -58q68 25 166 25q143 0 143 -78q0 -68 -57 -229q-29 -41 -92 -41q-14 0 -44 3t-44 3q-34 0 -52 -10q-4 -127 -8 -275q-2 -55 -38 -95t-89 -40q-66 0 -90 57q-51 121 -90 297z" />
<glyph unicode="s" horiz-adv-x="655" d="M14 697q0 56 76 130q59 57 131 95q55 28 178 28h9q268 0 268 -114q0 -27 -17 -52q-20 -31 -45 -24q-25 4 -90 16q-56 11 -77 11q-6 0 -9 -1l-2 -6q2 -2 4 -6q16 -23 72 -74q49 -43 68 -75q40 -72 40 -125q0 -12 -2 -23q-40 -222 -397 -222q-28 0 -59 1q-35 2 -76 16 q-46 16 -46 40q0 4 1 7l31 111q23 18 61 19q12 0 37 -2.5t37 -2.5q39 0 63 17q0 23 -65 55q-98 51 -123 68q-68 47 -68 113z" />
<glyph unicode="t" horiz-adv-x="577" d="M0 666q0 41 33 108q35 29 104 35q-29 215 -28 233q0 117 127 185q104 53 233 53q55 0 55 -127q0 -86 -35 -295q63 -25 74 -31q39 -23 41 -59q1 -20 1 -38q0 -96 -27 -126q-11 -10 -138 -59q-22 -53 -22 -78q0 -22 28 -29q37 -8 43 -14q25 -23 25 -88q0 -43 -85 -95.5 t-132 -52.5q-59 0 -104 170q-4 12 -46 224l-8 6h-13q-126 0 -126 78z" />
<glyph unicode="u" horiz-adv-x="659" d="M20 442q0 53 17 140q25 129 29 163q12 100 77.5 167t163.5 67q49 0 88 -21q49 -25 49 -69q0 -70 -70.5 -202t-72.5 -200q31 -16 55 -16q47 0 74 68l51 131q36 69 95 69h2q94 0 100 -395q0 -55 -6 -72q-12 -28 -57 -28h-3q-57 0 -82 20q-12 11 -47 72q-70 -49 -84 -55 q-37 -16 -102 -17q-125 0 -186 29q-90 41 -91 149z" />
<glyph unicode="v" horiz-adv-x="669" d="M20 768q0 70 72 121q139 100 205 100q61 0 82 -119q33 -180 53 -231q31 35 94 80q72 51 105 51q66 0 65 -70q0 -119 -131 -299q-139 -186 -252 -186q-29 0 -51 16q-53 39 -147.5 252t-94.5 285z" />
<glyph unicode="w" horiz-adv-x="976" d="M25 834q4 66 90 73q5 1 10 1q52 0 98 -60q16 -20 78 -107q37 57 96 133q53 43 105 44q92 0 203 -158q172 117 223 117q27 0 54.5 -44.5t27.5 -72.5q0 -57 -119 -243.5t-168 -190.5h-4q-58 0 -213 182q-59 -117 -80 -148q-61 -94 -121 -94q-111 0 -205 236 q-76 187 -76 303q0 15 1 29z" />
<glyph unicode="x" horiz-adv-x="710" d="M29 313q-2 35 58 142.5t60 134.5q0 39 -35.5 124t-35.5 130q0 31 8 61q35 10 66 10q51 0 108 -30q23 -12 104 -70l66 107q43 57 102 57q47 0 123 -49t76 -94q0 -47 -172 -242l2 -4q31 -16 84 -93t53 -110q0 -31 -65.5 -102.5t-95.5 -73.5h-3q-42 0 -96 57q-23 25 -84 90 q-152 -141 -227 -141q-25 0 -60.5 35t-35.5 61z" />
<glyph unicode="y" horiz-adv-x="757" d="M10 594q0 82 29 248q61 49 143 92q100 53 156 53q47 0 47 -100q0 -51 -37 -260q-1 -4 -1 -8q0 -28 38 -48q10 -4 70 -24q33 107 33 248q0 19 -1 39q10 33 23 65q8 12 96 12q72 0 105 -18q55 -31 55 -238q0 -213 -53 -401q-59 -211 -146 -211q-166 0 -340 160 q-10 29 -10 47q0 37 53 51q14 2 86 12q29 49 39 76q-145 27 -291 51q-94 25 -94 154z" />
<glyph unicode="z" horiz-adv-x="663" d="M25 829q0 94 32 132q45 49 176 75q100 20 193 21q238 0 238 -111q0 -57 -138.5 -200.5t-134.5 -167.5q145 -2 162 -5q102 -12 129 -69q-29 -145 -66 -195q-52 -69 -176 -69h-4q-35 0 -111.5 2t-117.5 2h-4q-129 0 -129 137q0 98 65 203l115 184q-12 2 -21 2 q-18 0 -48.5 -27.5t-53.5 -27.5q-37 0 -102 37q-4 43 -4 77z" />
<glyph unicode="&#xad;" d="M422 537q-16 66 2 202q12 84 45 121q117 12 270 12q207 -2 273 5q49 4 110 -13q78 -20 72 -63q23 -45 23 -131q0 -123 -50 -152q-106 -61 -426 -61q-299 0 -319 80z" />
<glyph unicode="&#x2000;" horiz-adv-x="782" />
<glyph unicode="&#x2001;" horiz-adv-x="1565" />
<glyph unicode="&#x2002;" horiz-adv-x="782" />
<glyph unicode="&#x2003;" horiz-adv-x="1565" />
<glyph unicode="&#x2004;" horiz-adv-x="521" />
<glyph unicode="&#x2005;" horiz-adv-x="391" />
<glyph unicode="&#x2006;" horiz-adv-x="260" />
<glyph unicode="&#x2007;" horiz-adv-x="260" />
<glyph unicode="&#x2008;" horiz-adv-x="195" />
<glyph unicode="&#x2009;" horiz-adv-x="313" />
<glyph unicode="&#x200a;" horiz-adv-x="86" />
<glyph unicode="&#x2010;" d="M422 537q-16 66 2 202q12 84 45 121q117 12 270 12q207 -2 273 5q49 4 110 -13q78 -20 72 -63q23 -45 23 -131q0 -123 -50 -152q-106 -61 -426 -61q-299 0 -319 80z" />
<glyph unicode="&#x2011;" d="M422 537q-16 66 2 202q12 84 45 121q117 12 270 12q207 -2 273 5q49 4 110 -13q78 -20 72 -63q23 -45 23 -131q0 -123 -50 -152q-106 -61 -426 -61q-299 0 -319 80z" />
<glyph unicode="&#x2012;" d="M422 537q-16 66 2 202q12 84 45 121q117 12 270 12q207 -2 273 5q49 4 110 -13q78 -20 72 -63q23 -45 23 -131q0 -123 -50 -152q-106 -61 -426 -61q-299 0 -319 80z" />
<glyph unicode="&#x2013;" horiz-adv-x="1439" d="M424 537q-21 66 2 202q15 84 58 121q149 12 344 12q264 -2 348 5q63 4 141 -13q99 -20 92 -63q29 -45 29 -131q0 -123 -64 -152q-135 -61 -543 -61q-382 0 -407 80z" />
<glyph unicode="&#x2014;" horiz-adv-x="2463" d="M433 537q-41 66 5 202q31 84 115 121q299 12 689 12q528 -2 697 5q125 4 281 -13q199 -20 183 -63q59 -45 59 -131q0 -123 -128 -152q-270 -61 -1087 -61q-763 0 -814 80z" />
<glyph unicode="&#x202f;" horiz-adv-x="313" />
<glyph unicode="&#x205f;" horiz-adv-x="391" />
<glyph unicode="&#x25fc;" horiz-adv-x="983" d="M0 0v983h983v-983h-983z" />
</font>
</defs>
</svg>
